<?xml version="1.0" standalone="no"?><!DOCTYPE svg PUBLIC "-//W3C//DTD SVG 1.1//EN" "http://www.w3.org/Graphics/SVG/1.1/DTD/svg11.dtd"><svg t="1636597815035" class="icon" viewBox="0 0 1024 1024" version="1.1" xmlns="http://www.w3.org/2000/svg" p-id="28665" width="128" height="128" xmlns:xlink="http://www.w3.org/1999/xlink"><defs><style type="text/css"></style></defs><path d="M739.983209 320.757399L104.595094 956.273154 51.114254 970.568748l16.72074-51.055694L703.350749 283.997299" fill="#55AEFF" p-id="28666"></path><path d="M853.326851 386.619245l6.254322-52.842644c1.276392-10.976974-2.425145-23.35798-9.062386-29.99522l-35.100789-35.10079 120.874356-120.874356c1.021114-1.021114 2.042228-2.169867 2.935702-3.446259 0.382918 0.382918 0.638196 0.765835 1.021114 1.148753 3.063342 3.063342 6.63724 5.616126 10.594057 7.403075 21.953949 10.338778 48.37527 0.893475 58.714048-21.188113 7.020158-14.933791 6.63724-31.65453-0.638196-45.950125 17.614215-19.784082 16.848379-50.289859-2.042228-69.308105-19.018246-19.018246-49.651663-19.656442-69.435744-1.914588-14.040316-6.892519-30.633417-7.147797-45.05665-0.382918-10.721696 4.97793-18.762968 13.912677-22.719784 24.889651-3.956816 11.104614-3.446259 23.102702 1.531671 33.696758 1.914589 3.956816 4.339734 7.530715 7.403075 10.594057 0.382918 0.382918 0.765835 0.765835 1.148753 1.021114-1.148753 0.893475-2.297506 1.786949-3.446259 2.935702l-120.874356 120.874356-35.10079-35.100789c-6.63724-6.63724-19.018246-10.338778-29.99522-9.062386l-52.842644 6.254322c-14.040316 1.65931-23.740898 7.530715-26.80424 16.082544-2.169867 6.126683-0.382918 12.891563 4.722652 17.869493l57.310017 57.310017L32.861844 901.643561c-1.404032 1.404032-2.297506 3.063342-2.808064 4.850291L0.441478 1009.626354c-1.148753 3.956816 0 8.168911 2.808063 11.104614 2.935702 2.935702 7.147797 3.956816 11.104613 2.808063L117.486657 994.054367c1.786949-0.510557 3.573899-1.531671 4.850291-2.808063L762.064797 351.390816l57.310017 57.310017c5.105569 5.105569 11.74281 6.764879 17.869493 4.722651 8.679468-2.935702 14.423234-12.763924 16.082544-26.804239zM841.201123 211.115296L827.671364 224.645055l-28.33591-28.335911 13.529759-13.529759 28.33591 28.335911z m-12.381006-44.290815l13.529759-13.529759 28.335911 28.33591-13.529759 13.529759-28.335911-28.33591z m57.692935-1.148753l-28.335911-28.33591L871.7069 123.810059l28.335911 28.33591-13.529759 13.529759z m-103.004863 46.588321l28.33591 28.33591-9.572943 9.572943-28.33591-28.33591 9.572943-9.572943zM920.337449 118.449211c3.701538 3.701538 3.701538 9.828221 0 13.529759l-4.339734 4.339734-28.33591-28.335911 4.339734-4.339734c3.701538-3.701538 9.828221-3.701538 13.529759 0L920.337449 118.449211z m-28.974106-55.012511c-2.425145-5.233209-2.680424-11.104614-0.765836-16.465461 1.914589-5.360848 5.871405-9.700582 11.104614-12.253367 10.0835-4.722652 21.826309-3.446259 30.761056 3.31862h0.127639c0.127639 0.127639 0.255278 0.127639 0.382918 0.255279 0.127639 0.127639 0.255278 0.255278 0.510557 0.255278 0.127639 0.127639 0.382918 0.127639 0.510556 0.255279 0.127639 0.127639 0.382918 0.127639 0.510557 0.255278 0.127639 0.127639 0.382918 0.127639 0.510557 0.255279 0.127639 0.127639 0.382918 0.127639 0.510557 0.255278 0.127639 0 0.382918 0.127639 0.510557 0.127639 0.127639 0 0.382918 0.127639 0.510557 0.12764 0.127639 0 0.382918 0.127639 0.510557 0.127639 0.127639 0 0.382918 0.127639 0.510557 0.127639h3.063342c0.127639 0 0.382918 0 0.510557-0.127639 0.127639 0 0.382918-0.127639 0.510557-0.127639 0.127639 0 0.382918-0.127639 0.510557-0.12764 0.127639 0 0.382918-0.127639 0.510556-0.127639 0.127639 0 0.382918-0.127639 0.510557-0.255278 0.127639-0.127639 0.382918-0.127639 0.510557-0.255279 0.127639-0.127639 0.382918-0.127639 0.510557-0.255278 0.127639-0.127639 0.382918-0.127639 0.510557-0.255279 0.127639-0.127639 0.255278-0.255278 0.510557-0.255278 0.127639-0.127639 0.255278-0.127639 0.510557-0.255279 0.127639-0.127639 0.255278-0.255278 0.510557-0.382917l0.382918-0.382918 0.382917-0.382918 0.382918-0.382918c0.127639-0.127639 0.255278-0.255278 0.382918-0.510557 0.127639-0.127639 0.255278-0.255278 0.255278-0.382917v-0.127639c0.893475-1.148753 1.786949-2.297506 2.808064-3.318621 10.976974-10.976974 28.718828-10.976974 39.568163 0s10.976974 28.718828 0 39.568163c-1.021114 1.021114-2.169867 1.914589-3.190981 2.808064l-0.12764 0.127639-0.127639 0.127639-0.255278 0.255279-0.382918 0.382917-0.382918 0.382918-0.382917 0.382918-0.382918 0.382917c-0.127639 0.127639-0.255278 0.255278-0.382918 0.510557-0.127639 0.127639-0.255278 0.255278-0.255278 0.510557-0.127639 0.127639-0.255278 0.255278-0.255279 0.510557-0.127639 0.127639-0.127639 0.382918-0.255278 0.510557-0.127639 0.127639-0.127639 0.255278-0.255279 0.510557-0.127639 0.127639-0.127639 0.382918-0.255278 0.510557 0 0.127639-0.127639 0.382918-0.127639 0.510557 0 0.127639-0.127639 0.382918-0.12764 0.510557 0 0.127639-0.127639 0.382918-0.127639 0.510557 0 0.127639-0.127639 0.382918-0.127639 0.510557 0 0.127639 0 0.382918-0.127639 0.510557v2.552784c0 0.127639 0 0.382918 0.127639 0.510557 0 0.127639 0 0.382918 0.127639 0.510557 0 0.127639 0.127639 0.382918 0.127639 0.510557 0 0.127639 0.127639 0.382918 0.12764 0.510557 0 0.127639 0.127639 0.382918 0.127639 0.510557 0.127639 0.127639 0.127639 0.382918 0.255278 0.510557 0.127639 0.127639 0.127639 0.382918 0.255279 0.510557 0.127639 0.127639 0.127639 0.382918 0.255278 0.510557 0.127639 0.127639 0.127639 0.255278 0.255279 0.510557 0.127639 0.127639 0.255278 0.382918 0.382917 0.510557 0.127639 0.127639 0.127639 0.255278 0.255279 0.255278l0.127639 0.12764 0.127639 0.127639c7.147797 8.934746 8.551829 20.805195 3.701538 31.143973-5.105569 10.721696-17.869493 15.444348-28.718828 10.338778-3.573899-1.65931-6.381962-4.722652-7.785993-8.424189-1.404032-3.829177-1.148753-7.785993 0.510557-11.487531 2.680424-5.871405 5.105569-7.020158 11.870449-5.999044 6.126683 1.021114 11.998088-3.190981 13.019202-9.317665 1.021114-6.126683-3.190981-11.998088-9.317664-13.019202-15.444348-2.552785-27.314796 2.935702-34.590233 15.954905l-10.594057-10.594057c13.019202-7.147797 18.507689-19.018246 15.954905-34.590233-1.021114-6.126683-6.764879-10.338778-13.019202-9.317664-6.126683 1.021114-10.338778 6.764879-9.317665 13.019202 1.148753 6.63724-0.127639 9.062386-5.999044 11.870449-3.573899 1.65931-7.658354 1.914589-11.487531 0.510557-3.573899-0.638196-6.509601-3.31862-8.29655-7.020158zM108.424271 973.121533l-80.795636 23.102701 23.102702-80.795636 637.685621-637.685621 57.692935 57.692934L108.424271 973.121533z m527.78824-779.492812c1.021114-0.255278 2.297506-0.510557 3.829177-0.638197l52.842643-6.254322c4.722652-0.510557 10.211139 1.404032 11.487531 2.680424l130.31966 130.319659c1.276392 1.276392 3.190981 6.63724 2.680424 11.487532l-6.254323 52.842643c-0.127639 1.404032-0.382918 2.680424-0.638196 3.829177L636.212511 193.628721z" fill="#002C5B" p-id="28667"></path><path d="M185.263091 862.075398c4.339734 4.339734 11.487531 4.339734 15.954904 0l502.643311-502.64331c4.339734-4.339734 4.339734-11.487531 0-15.954905-4.339734-4.339734-11.487531-4.339734-15.954905 0L185.263091 846.120493c-4.339734 4.339734-4.339734 11.487531 0 15.954905z" fill="#002C5B" p-id="28668"></path></svg>